<svg width="58" height="48" viewBox="0 0 58 48" fill="none" xmlns="http://www.w3.org/2000/svg">
<path fill-rule="evenodd" clip-rule="evenodd" d="M38.9187 14.87L20.4485 4.21045L27.3193 16.1371H21.2394V20.9657L7.44824 9.23218L20.8609 33.106C22.1215 40.5992 28.7824 46.3157 36.81 46.3157C45.737 46.3157 52.9738 39.2466 52.9738 30.5263C52.9738 22.5041 46.8494 15.8793 38.9187 14.87Z" fill="#1C1A37"/>
<path fill-rule="evenodd" clip-rule="evenodd" d="M36.8394 13.4095L18.2758 0L24.1 14.8033L19.1502 13.1149L17.4224 20.1147L4 5.52421L17.0068 33.4692C18.3913 41.7116 25.7068 47.9998 34.5234 47.9998C44.3278 47.9998 52.2758 40.2237 52.2758 30.6314C52.2758 21.8071 45.5495 14.5197 36.8394 13.4095ZM12.4427 19.5565L19.7307 32.5492L19.8095 33.0185C20.9722 39.9399 27.1202 45.2209 34.5234 45.2209C42.7591 45.2209 49.4355 38.689 49.4355 30.6314C49.4355 23.2212 43.7861 17.0974 36.4724 16.1652L35.8955 16.0916L24.2177 9.34158L28.9576 17.5822H20.2628V26.2203L12.4427 19.5565Z" fill="#1C1A37"/>
<path fill-rule="evenodd" clip-rule="evenodd" d="M38.5635 11.7254L18.2779 0L25.8241 13.1193H19.1466V18.4307L4 5.5239L18.731 31.7851C20.1155 40.0276 27.4309 46.3158 36.2475 46.3158C46.0519 46.3158 54 38.5397 54 28.9474C54 20.123 47.2736 12.8357 38.5635 11.7254ZM14.1668 17.8725L21.4549 30.8652L21.5337 31.3345C22.6964 38.256 28.8443 43.5369 36.2475 43.5369C44.4833 43.5369 51.1596 37.0049 51.1596 28.9474C51.1596 21.5371 45.5102 15.4134 38.1966 14.4811L37.6196 14.4076L25.9419 7.65756L30.6818 15.8982H21.9869V24.5363L14.1668 17.8725Z" fill="#23EAA4"/>
<path fill-rule="evenodd" clip-rule="evenodd" d="M38.5635 11.7254L18.2779 0L25.8241 13.1193H19.1466V18.4307L4 5.5239L18.731 31.7851C20.1155 40.0276 27.4309 46.3158 36.2475 46.3158C46.0519 46.3158 54 38.5397 54 28.9474C54 20.123 47.2736 12.8357 38.5635 11.7254ZM14.1668 17.8725L21.4549 30.8652L21.5337 31.3345C22.6964 38.256 28.8443 43.5369 36.2475 43.5369C44.4833 43.5369 51.1596 37.0049 51.1596 28.9474C51.1596 21.5371 45.5102 15.4134 38.1966 14.4811L37.6196 14.4076L25.9419 7.65756L30.6818 15.8982H21.9869V24.5363L14.1668 17.8725Z" fill="url(#paint0_linear_1035_436)"/>
<path fill-rule="evenodd" clip-rule="evenodd" d="M37.307 32.6178L27.001 26.0181L27.14 26.9448L27.1402 26.9458L27.1405 26.9481L27.1418 26.956L27.1463 26.9847C27.1504 27.0095 27.1564 27.0452 27.1644 27.0908C27.1804 27.1818 27.2047 27.3121 27.2381 27.4722C27.3047 27.7918 27.4083 28.2321 27.556 28.7149C27.8448 29.6589 28.3259 30.8482 29.0914 31.5726C29.6429 32.0945 30.3812 32.4153 31.1412 32.6132C31.9048 32.8119 32.7222 32.8947 33.464 32.9191C34.2075 32.9436 34.8875 32.9098 35.381 32.8701C35.6281 32.8501 35.8295 32.8287 35.9698 32.8121C36.0401 32.8037 36.095 32.7966 36.133 32.7915L36.1769 32.7855L36.1888 32.7839L36.1921 32.7833L36.1937 32.7831L37.307 32.6178ZM36.1289 32.3668C36.1937 32.7831 36.1939 32.7831 36.1937 32.7831L36.1289 32.3668ZM27.5666 26.8836L27.14 26.9448C27.14 26.9448 27.14 26.9447 27.5666 26.8836ZM46.3831 29.397L46.4821 28.5151L39.6955 32.8142L40.6565 33.0495L40.6575 33.0497L40.6597 33.0503L40.6671 33.052L40.6933 33.0581C40.7158 33.0632 40.7479 33.0705 40.7888 33.0793C40.8705 33.0966 40.9874 33.1202 41.1309 33.1452C41.4171 33.1952 41.8133 33.2519 42.2508 33.2778C42.6866 33.3036 43.1756 33.2997 43.6435 33.2227C44.1078 33.1463 44.5833 32.9927 44.9618 32.6947C45.5829 32.2058 45.9272 31.3352 46.1183 30.6739C46.2178 30.3293 46.2837 30.0124 46.3247 29.782C46.3452 29.6665 46.3596 29.5719 46.369 29.5055C46.3737 29.4722 46.3771 29.4459 46.3795 29.4276L46.3821 29.406L46.3828 29.3999L46.3831 29.397ZM40.7611 32.641L40.6565 33.0495C40.6564 33.0494 40.6563 33.0494 40.7611 32.641Z" fill="#23EAA4"/>
<path fill-rule="evenodd" clip-rule="evenodd" d="M37.307 32.6178L27.001 26.0181L27.14 26.9448L27.1402 26.9458L27.1405 26.9481L27.1418 26.956L27.1463 26.9847C27.1504 27.0095 27.1564 27.0452 27.1644 27.0908C27.1804 27.1818 27.2047 27.3121 27.2381 27.4722C27.3047 27.7918 27.4083 28.2321 27.556 28.7149C27.8448 29.6589 28.3259 30.8482 29.0914 31.5726C29.6429 32.0945 30.3812 32.4153 31.1412 32.6132C31.9048 32.8119 32.7222 32.8947 33.464 32.9191C34.2075 32.9436 34.8875 32.9098 35.381 32.8701C35.6281 32.8501 35.8295 32.8287 35.9698 32.8121C36.0401 32.8037 36.095 32.7966 36.133 32.7915L36.1769 32.7855L36.1888 32.7839L36.1921 32.7833L36.1937 32.7831L37.307 32.6178ZM36.1289 32.3668C36.1937 32.7831 36.1939 32.7831 36.1937 32.7831L36.1289 32.3668ZM27.5666 26.8836L27.14 26.9448C27.14 26.9448 27.14 26.9447 27.5666 26.8836ZM46.3831 29.397L46.4821 28.5151L39.6955 32.8142L40.6565 33.0495L40.6575 33.0497L40.6597 33.0503L40.6671 33.052L40.6933 33.0581C40.7158 33.0632 40.7479 33.0705 40.7888 33.0793C40.8705 33.0966 40.9874 33.1202 41.1309 33.1452C41.4171 33.1952 41.8133 33.2519 42.2508 33.2778C42.6866 33.3036 43.1756 33.2997 43.6435 33.2227C44.1078 33.1463 44.5833 32.9927 44.9618 32.6947C45.5829 32.2058 45.9272 31.3352 46.1183 30.6739C46.2178 30.3293 46.2837 30.0124 46.3247 29.782C46.3452 29.6665 46.3596 29.5719 46.369 29.5055C46.3737 29.4722 46.3771 29.4459 46.3795 29.4276L46.3821 29.406L46.3828 29.3999L46.3831 29.397ZM40.7611 32.641L40.6565 33.0495C40.6564 33.0494 40.6563 33.0494 40.7611 32.641Z" fill="url(#paint1_linear_1035_436)"/>
<defs>
<linearGradient id="paint0_linear_1035_436" x1="6.15517" y1="2.52632" x2="45.3123" y2="42.1807" gradientUnits="userSpaceOnUse">
<stop stop-color="#23EAA4"/>
<stop offset="0.583333" stop-color="#10B379"/>
<stop offset="0.828125" stop-color="#1E8169"/>
</linearGradient>
<linearGradient id="paint1_linear_1035_436" x1="18.2242" y1="17.6841" x2="22.0725" y2="49.5852" gradientUnits="userSpaceOnUse">
<stop stop-color="#23EAA4"/>
<stop offset="0.666667" stop-color="#23EAA4"/>
</linearGradient>
</defs>
</svg>
