<svg width="260" height="48" viewBox="0 0 260 48" fill="none" xmlns="http://www.w3.org/2000/svg">
<path d="M81.8387 23.0401H77.4611L76.1939 19.8376H69.881L68.6829 23.0401H64.3975L71.2403 6.7278H75.065L81.8387 23.0401ZM75.1111 16.6811L73.0835 11.0824L71.0099 16.6811H75.1111ZM99.7855 14.8148C99.7855 17.38 98.9483 19.4689 97.2741 21.0817C95.5999 22.6792 93.4725 23.4779 90.892 23.4779C88.3269 23.4779 86.2072 22.6792 84.533 21.0817C82.8587 19.4689 82.0216 17.38 82.0216 14.8148C82.0216 12.2344 82.8511 10.1684 84.5099 8.61708C86.1842 7.06572 88.3115 6.29004 90.892 6.29004C93.4879 6.29004 95.6152 7.06572 97.2741 8.61708C98.9483 10.1684 99.7855 12.2344 99.7855 14.8148ZM95.5691 14.8148C95.5691 13.371 95.1314 12.1806 94.2559 11.2436C93.3803 10.3067 92.2591 9.8382 90.892 9.8382C89.525 9.8382 88.4037 10.3067 87.5282 11.2436C86.668 12.1806 86.2379 13.371 86.2379 14.8148C86.2379 16.2894 86.668 17.5028 87.5282 18.4552C88.4037 19.4075 89.525 19.8836 90.892 19.8836C92.2591 19.8836 93.3803 19.4075 94.2559 18.4552C95.1314 17.5028 95.5691 16.2894 95.5691 14.8148ZM117.609 14.8379C117.609 16.2203 117.348 17.4491 116.826 18.5243C116.304 19.5995 115.597 20.4596 114.706 21.1048C113.831 21.7499 112.863 22.2337 111.803 22.5563C110.743 22.8788 109.63 23.0401 108.462 23.0401H102.38V6.7278H108.278C109.246 6.7278 110.16 6.81228 111.02 6.98124C111.895 7.13484 112.74 7.41132 113.554 7.81068C114.368 8.21004 115.067 8.70924 115.651 9.30828C116.25 9.90732 116.726 10.683 117.079 11.6353C117.433 12.5723 117.609 13.6398 117.609 14.8379ZM113.508 14.8379C113.508 13.9624 113.362 13.2097 113.07 12.58C112.779 11.9348 112.372 11.4356 111.849 11.0824C111.342 10.7291 110.782 10.4756 110.167 10.322C109.568 10.1684 108.908 10.0916 108.186 10.0916H106.228V19.6302H108.094C109.676 19.6302 110.974 19.2539 111.988 18.5012C113.001 17.7486 113.508 16.5275 113.508 14.8379Z" fill="#EEEEF0"/>
<path d="M132.295 23.0401H119.439V19.6302L127.203 10.0686H119.623V6.7278H132.134V9.88428L124.185 19.6302H132.295V23.0401ZM151.288 14.8148C151.288 17.38 150.451 19.4689 148.777 21.0817C147.102 22.6792 144.975 23.4779 142.394 23.4779C139.829 23.4779 137.71 22.6792 136.035 21.0817C134.361 19.4689 133.524 17.38 133.524 14.8148C133.524 12.2344 134.354 10.1684 136.012 8.61708C137.687 7.06572 139.814 6.29004 142.394 6.29004C144.99 6.29004 147.118 7.06572 148.777 8.61708C150.451 10.1684 151.288 12.2344 151.288 14.8148ZM147.072 14.8148C147.072 13.371 146.634 12.1806 145.758 11.2436C144.883 10.3067 143.762 9.8382 142.394 9.8382C141.027 9.8382 139.906 10.3067 139.031 11.2436C138.17 12.1806 137.74 13.371 137.74 14.8148C137.74 16.2894 138.17 17.5028 139.031 18.4552C139.906 19.4075 141.027 19.8836 142.394 19.8836C143.762 19.8836 144.883 19.4075 145.758 18.4552C146.634 17.5028 147.072 16.2894 147.072 14.8148ZM168.72 23.0401H164.25L157.683 12.3726H157.614L157.706 23.0401H153.882V6.7278H158.375L164.918 17.3723H164.987L164.895 6.7278H168.72V23.0401ZM183.466 23.0401H172.084V6.7278H183.051V10.0686H175.886V13.1329H182.66V16.2894H175.886V19.6763H183.466V23.0401Z" fill="white"/>
<path d="M132.295 23.0401H119.439V19.6302L127.203 10.0686H119.623V6.7278H132.134V9.88428L124.185 19.6302H132.295V23.0401ZM151.288 14.8148C151.288 17.38 150.451 19.4689 148.777 21.0817C147.102 22.6792 144.975 23.4779 142.394 23.4779C139.829 23.4779 137.71 22.6792 136.035 21.0817C134.361 19.4689 133.524 17.38 133.524 14.8148C133.524 12.2344 134.354 10.1684 136.012 8.61708C137.687 7.06572 139.814 6.29004 142.394 6.29004C144.99 6.29004 147.118 7.06572 148.777 8.61708C150.451 10.1684 151.288 12.2344 151.288 14.8148ZM147.072 14.8148C147.072 13.371 146.634 12.1806 145.758 11.2436C144.883 10.3067 143.762 9.8382 142.394 9.8382C141.027 9.8382 139.906 10.3067 139.031 11.2436C138.17 12.1806 137.74 13.371 137.74 14.8148C137.74 16.2894 138.17 17.5028 139.031 18.4552C139.906 19.4075 141.027 19.8836 142.394 19.8836C143.762 19.8836 144.883 19.4075 145.758 18.4552C146.634 17.5028 147.072 16.2894 147.072 14.8148ZM168.72 23.0401H164.25L157.683 12.3726H157.614L157.706 23.0401H153.882V6.7278H158.375L164.918 17.3723H164.987L164.895 6.7278H168.72V23.0401ZM183.466 23.0401H172.084V6.7278H183.051V10.0686H175.886V13.1329H182.66V16.2894H175.886V19.6763H183.466V23.0401Z" fill="url(#paint0_linear_1035_425)"/>
<path d="M74.1511 38.7607L75.3645 39.5902C74.4019 40.9009 73.0195 41.5563 71.2173 41.5563C69.5482 41.5563 68.176 41.0187 67.1008 39.9435C66.0256 38.8683 65.488 37.4961 65.488 35.827C65.488 34.1476 66.0359 32.7806 67.1316 31.7259C68.2272 30.6609 69.6096 30.1284 71.2788 30.1284C72.057 30.1284 72.8045 30.2769 73.5213 30.5739C74.2381 30.8708 74.7911 31.2855 75.1802 31.818L73.9821 32.7396C73.7159 32.3607 73.337 32.0535 72.8455 31.818C72.354 31.5825 71.8317 31.4647 71.2788 31.4647C70.05 31.4647 69.0516 31.8845 68.2836 32.7243C67.5258 33.564 67.1469 34.5982 67.1469 35.827C67.1469 37.0762 67.5206 38.1207 68.2682 38.9604C69.0157 39.7899 70.0039 40.2046 71.2327 40.2046C72.5126 40.2046 73.4855 39.7233 74.1511 38.7607ZM90.5446 35.827C90.5446 37.4961 89.9968 38.8683 88.9011 39.9435C87.8157 41.0187 86.4384 41.5563 84.7693 41.5563C83.1104 41.5563 81.7382 41.0187 80.6528 39.9435C79.5674 38.8683 79.0246 37.4961 79.0246 35.827C79.0246 34.1476 79.5622 32.7806 80.6374 31.7259C81.7229 30.6609 83.1002 30.1284 84.7693 30.1284C86.4384 30.1284 87.8157 30.6609 88.9011 31.7259C89.9968 32.7806 90.5446 34.1476 90.5446 35.827ZM88.9011 35.827C88.9011 34.5982 88.5223 33.564 87.7645 32.7243C87.0067 31.8845 86.0083 31.4647 84.7693 31.4647C83.5507 31.4647 82.5626 31.8845 81.8048 32.7243C81.047 33.564 80.6681 34.5982 80.6681 35.827C80.6681 37.066 81.047 38.1053 81.8048 38.9451C82.5626 39.7745 83.5507 40.1892 84.7693 40.1892C86.0083 40.1892 87.0067 39.7745 87.7645 38.9451C88.5223 38.1053 88.9011 37.066 88.9011 35.827ZM97.8197 30.4049L101.076 38.7607H101.107L104.317 30.4049H106.683V41.2798H105.162V32.1867H105.131L101.522 41.2798H100.554L96.9595 32.1867H96.9288V41.2798H95.4542V30.4049H97.8197ZM114.536 30.4049L117.793 38.7607H117.823L121.034 30.4049H123.399V41.2798H121.878V32.1867H121.848L118.238 41.2798H117.27L113.676 32.1867H113.645V41.2798H112.171V30.4049H114.536ZM136.168 40.3121C135.441 41.1415 134.397 41.5563 133.035 41.5563C131.672 41.5563 130.628 41.1415 129.901 40.3121C129.174 39.4724 128.811 38.4535 128.811 37.2555V30.4049H130.331V37.1633C130.331 38.0132 130.546 38.73 130.976 39.3137C131.417 39.8974 132.102 40.1892 133.035 40.1892C133.967 40.1892 134.647 39.8974 135.077 39.3137C135.518 38.73 135.738 38.0132 135.738 37.1633V30.4049H137.259V37.2555C137.259 38.4535 136.895 39.4724 136.168 40.3121ZM144.646 30.4049L150.329 39.0987H150.36V30.4049H151.88V41.2798H149.96L144.216 32.4017H144.185V41.2798H142.664V30.4049H144.646ZM158.891 30.4049V41.2798H157.371V30.4049H158.891ZM168.192 31.7412V41.2798H166.671V31.7412H163.184V30.4049H171.678V31.7412H168.192ZM180.029 36.5796V41.2798H178.493V36.5796L174.422 30.4049H176.296L179.307 35.3201L182.333 30.4049H184.099L180.029 36.5796Z" fill="#9797B0"/>
<path fill-rule="evenodd" clip-rule="evenodd" d="M38.9187 14.87L20.4485 4.21045L27.3193 16.1371H21.2394V20.9657L7.44824 9.23218L20.8609 33.106C22.1215 40.5992 28.7824 46.3157 36.81 46.3157C45.737 46.3157 52.9738 39.2466 52.9738 30.5263C52.9738 22.5041 46.8494 15.8793 38.9187 14.87Z" fill="#1C1A37"/>
<path fill-rule="evenodd" clip-rule="evenodd" d="M36.8394 13.4095L18.2758 0L24.1 14.8033L19.1502 13.1149L17.4224 20.1147L4 5.52421L17.0068 33.4692C18.3913 41.7116 25.7068 47.9998 34.5234 47.9998C44.3278 47.9998 52.2758 40.2237 52.2758 30.6314C52.2758 21.8071 45.5495 14.5197 36.8394 13.4095ZM12.4427 19.5565L19.7307 32.5492L19.8095 33.0185C20.9722 39.9399 27.1202 45.2209 34.5234 45.2209C42.7591 45.2209 49.4355 38.689 49.4355 30.6314C49.4355 23.2212 43.7861 17.0974 36.4724 16.1652L35.8955 16.0916L24.2177 9.34158L28.9576 17.5822H20.2628V26.2203L12.4427 19.5565Z" fill="#1C1A37"/>
<path fill-rule="evenodd" clip-rule="evenodd" d="M38.5635 11.7254L18.2779 0L25.8241 13.1193H19.1466V18.4307L4 5.5239L18.731 31.7851C20.1155 40.0276 27.4309 46.3158 36.2475 46.3158C46.0519 46.3158 54 38.5397 54 28.9474C54 20.123 47.2736 12.8357 38.5635 11.7254ZM14.1668 17.8725L21.4549 30.8652L21.5337 31.3345C22.6964 38.256 28.8443 43.5369 36.2475 43.5369C44.4833 43.5369 51.1596 37.0049 51.1596 28.9474C51.1596 21.5371 45.5102 15.4134 38.1966 14.4811L37.6196 14.4076L25.9419 7.65756L30.6818 15.8982H21.9869V24.5363L14.1668 17.8725Z" fill="#23EAA4"/>
<path fill-rule="evenodd" clip-rule="evenodd" d="M38.5635 11.7254L18.2779 0L25.8241 13.1193H19.1466V18.4307L4 5.5239L18.731 31.7851C20.1155 40.0276 27.4309 46.3158 36.2475 46.3158C46.0519 46.3158 54 38.5397 54 28.9474C54 20.123 47.2736 12.8357 38.5635 11.7254ZM14.1668 17.8725L21.4549 30.8652L21.5337 31.3345C22.6964 38.256 28.8443 43.5369 36.2475 43.5369C44.4833 43.5369 51.1596 37.0049 51.1596 28.9474C51.1596 21.5371 45.5102 15.4134 38.1966 14.4811L37.6196 14.4076L25.9419 7.65756L30.6818 15.8982H21.9869V24.5363L14.1668 17.8725Z" fill="url(#paint1_linear_1035_425)"/>
<path fill-rule="evenodd" clip-rule="evenodd" d="M37.307 32.6178L27.001 26.0181L27.14 26.9448L27.1402 26.9458L27.1405 26.9481L27.1418 26.956L27.1463 26.9847C27.1504 27.0095 27.1564 27.0452 27.1644 27.0908C27.1804 27.1818 27.2047 27.3121 27.2381 27.4722C27.3047 27.7918 27.4083 28.2321 27.556 28.7149C27.8448 29.6589 28.3259 30.8482 29.0914 31.5726C29.6429 32.0945 30.3812 32.4153 31.1412 32.6132C31.9048 32.8119 32.7222 32.8947 33.464 32.9191C34.2075 32.9436 34.8875 32.9098 35.381 32.8701C35.6281 32.8501 35.8295 32.8287 35.9698 32.8121C36.0401 32.8037 36.095 32.7966 36.133 32.7915L36.1769 32.7855L36.1888 32.7839L36.1921 32.7833L36.1937 32.7831L37.307 32.6178ZM36.1289 32.3668C36.1937 32.7831 36.1939 32.7831 36.1937 32.7831L36.1289 32.3668ZM27.5666 26.8836L27.14 26.9448C27.14 26.9448 27.14 26.9447 27.5666 26.8836ZM46.3831 29.397L46.4821 28.5151L39.6955 32.8142L40.6565 33.0495L40.6575 33.0497L40.6597 33.0503L40.6671 33.052L40.6933 33.0581C40.7158 33.0632 40.7479 33.0705 40.7888 33.0793C40.8705 33.0966 40.9874 33.1202 41.1309 33.1452C41.4171 33.1952 41.8133 33.2519 42.2508 33.2778C42.6866 33.3036 43.1756 33.2997 43.6435 33.2227C44.1078 33.1463 44.5833 32.9927 44.9618 32.6947C45.5829 32.2058 45.9272 31.3352 46.1183 30.6739C46.2178 30.3293 46.2837 30.0124 46.3247 29.782C46.3452 29.6665 46.3596 29.5719 46.369 29.5055C46.3737 29.4722 46.3771 29.4459 46.3795 29.4276L46.3821 29.406L46.3828 29.3999L46.3831 29.397ZM40.7611 32.641L40.6565 33.0495C40.6564 33.0494 40.6563 33.0494 40.7611 32.641Z" fill="#23EAA4"/>
<path fill-rule="evenodd" clip-rule="evenodd" d="M37.307 32.6178L27.001 26.0181L27.14 26.9448L27.1402 26.9458L27.1405 26.9481L27.1418 26.956L27.1463 26.9847C27.1504 27.0095 27.1564 27.0452 27.1644 27.0908C27.1804 27.1818 27.2047 27.3121 27.2381 27.4722C27.3047 27.7918 27.4083 28.2321 27.556 28.7149C27.8448 29.6589 28.3259 30.8482 29.0914 31.5726C29.6429 32.0945 30.3812 32.4153 31.1412 32.6132C31.9048 32.8119 32.7222 32.8947 33.464 32.9191C34.2075 32.9436 34.8875 32.9098 35.381 32.8701C35.6281 32.8501 35.8295 32.8287 35.9698 32.8121C36.0401 32.8037 36.095 32.7966 36.133 32.7915L36.1769 32.7855L36.1888 32.7839L36.1921 32.7833L36.1937 32.7831L37.307 32.6178ZM36.1289 32.3668C36.1937 32.7831 36.1939 32.7831 36.1937 32.7831L36.1289 32.3668ZM27.5666 26.8836L27.14 26.9448C27.14 26.9448 27.14 26.9447 27.5666 26.8836ZM46.3831 29.397L46.4821 28.5151L39.6955 32.8142L40.6565 33.0495L40.6575 33.0497L40.6597 33.0503L40.6671 33.052L40.6933 33.0581C40.7158 33.0632 40.7479 33.0705 40.7888 33.0793C40.8705 33.0966 40.9874 33.1202 41.1309 33.1452C41.4171 33.1952 41.8133 33.2519 42.2508 33.2778C42.6866 33.3036 43.1756 33.2997 43.6435 33.2227C44.1078 33.1463 44.5833 32.9927 44.9618 32.6947C45.5829 32.2058 45.9272 31.3352 46.1183 30.6739C46.2178 30.3293 46.2837 30.0124 46.3247 29.782C46.3452 29.6665 46.3596 29.5719 46.369 29.5055C46.3737 29.4722 46.3771 29.4459 46.3795 29.4276L46.3821 29.406L46.3828 29.3999L46.3831 29.397ZM40.7611 32.641L40.6565 33.0495C40.6564 33.0494 40.6563 33.0494 40.7611 32.641Z" fill="url(#paint2_linear_1035_425)"/>
<defs>
<linearGradient id="paint0_linear_1035_425" x1="69.8923" y1="4.13685" x2="71.1456" y2="70.2047" gradientUnits="userSpaceOnUse">
<stop stop-color="#23EAA4"/>
<stop offset="0.0001" stop-color="#23EAA4"/>
<stop offset="0.828125" stop-color="#1E8169"/>
</linearGradient>
<linearGradient id="paint1_linear_1035_425" x1="6.15517" y1="2.52632" x2="45.3123" y2="42.1807" gradientUnits="userSpaceOnUse">
<stop stop-color="#23EAA4"/>
<stop offset="0.583333" stop-color="#10B379"/>
<stop offset="0.828125" stop-color="#1E8169"/>
</linearGradient>
<linearGradient id="paint2_linear_1035_425" x1="18.2242" y1="17.6841" x2="22.0725" y2="49.5852" gradientUnits="userSpaceOnUse">
<stop stop-color="#23EAA4"/>
<stop offset="0.666667" stop-color="#23EAA4"/>
</linearGradient>
</defs>
</svg>
