<svg width="24" height="24" viewBox="0 0 24 24" fill="none" xmlns="http://www.w3.org/2000/svg">
<g id="Iconly/Bold/Fullscreen">
<g id="Fullscreen">
<path id="Fullscreen_2" fill-rule="evenodd" clip-rule="evenodd" d="M9.18744 3.74722C9.18744 3.33438 8.84644 3 8.42644 3H8.42544L6.79644 3.00098C4.60544 3.00294 2.82244 4.75331 2.82244 6.90279V8.76201C2.82244 9.17386 3.16344 9.50923 3.58344 9.50923C4.00344 9.50923 4.34544 9.17386 4.34544 8.76201V6.90279C4.34544 5.57604 5.44544 4.4964 6.79744 4.49444L8.42644 4.49345C8.84744 4.49345 9.18744 4.15907 9.18744 3.74722ZM15.5991 3.00031H17.1921C19.3891 3.00031 21.1751 4.75166 21.1751 6.90604V8.76231C21.1751 9.17417 20.8351 9.50953 20.4141 9.50953C19.9941 9.50953 19.6531 9.17417 19.6531 8.76231V6.90604C19.6531 5.57536 18.5491 4.49278 17.1921 4.49278H15.5991C15.1791 4.49278 14.8381 4.15937 14.8381 3.74752C14.8381 3.33469 15.1791 3.00031 15.5991 3.00031ZM8.39631 21H6.80331C4.60631 21 2.82031 19.2486 2.82031 17.0943V15.238C2.82031 14.8261 3.16031 14.4908 3.58131 14.4908C4.00131 14.4908 4.34231 14.8261 4.34231 15.238L4.34231 17.0943C4.34231 18.4249 5.44631 19.5075 6.80331 19.5075H8.39631C8.81631 19.5075 9.15731 19.8409 9.15731 20.2528C9.15731 20.6656 8.81631 21 8.39631 21ZM15.5689 21C15.1489 21 14.8079 20.6656 14.8079 20.2528C14.8079 19.8409 15.1479 19.5065 15.5689 19.5065L17.1979 19.5056C18.5499 19.5036 19.6499 18.424 19.6499 17.0972V15.238C19.6499 14.8261 19.9919 14.4908 20.4119 14.4908C20.8319 14.4908 21.1729 14.8261 21.1729 15.238V17.0972C21.1729 19.2467 19.3899 20.9971 17.1989 20.999L15.5699 21H15.5689Z" fill="currentColor"/>
</g>
</g>
</svg>
