<svg width="24" height="24" viewBox="0 0 24 24" fill="none" xmlns="http://www.w3.org/2000/svg">
<path fill-rule="evenodd" clip-rule="evenodd" d="M12 2C6.48842 2 2 6.48625 2 12.0058C2 17.5137 6.48842 22 12 22C17.5116 22 22 17.5137 22 12.0058C22 6.48625 17.5116 2 12 2ZM14.0025 8.11233V11.0925V13.0714V16.0516C14.0025 16.5902 14.3925 17.0277 14.8725 17.0277C15.3625 17.0277 15.7525 16.5902 15.7525 16.0516V13.0714V11.0925V8.11233C15.7525 7.57266 15.3625 7.125 14.8725 7.125C14.3925 7.125 14.0025 7.57266 14.0025 8.11233ZM8.25 11.0925V8.11233C8.25 7.57266 8.64 7.125 9.12 7.125C9.61 7.125 10 7.57266 10 8.11233V11.0925V13.0714V16.0516C10 16.5902 9.61 17.0277 9.12 17.0277C8.64 17.0277 8.25 16.5902 8.25 16.0516V13.0714V11.0925Z" fill="currentColor"/>
</svg>
