<svg width="32" height="32" viewBox="0 0 32 32" fill="none" xmlns="http://www.w3.org/2000/svg">
<path fill-rule="evenodd" clip-rule="evenodd" d="M2.66663 16.0077C2.66663 8.6483 8.65118 2.66663 16 2.66663C23.3487 2.66663 29.3333 8.6483 29.3333 16.0077C29.3333 23.3516 23.3487 29.3333 16 29.3333C8.65118 29.3333 2.66663 23.3516 2.66663 16.0077ZM20.8906 17.3571C21.0321 17.2156 21.2123 16.9969 21.2509 16.9455C21.4568 16.6753 21.5598 16.3409 21.5598 16.0077C21.5598 15.6334 21.444 15.2861 21.2252 15.0031C21.2073 14.9851 21.1721 14.9469 21.1264 14.8971C21.0408 14.8039 20.9179 14.6702 20.8005 14.5528C19.7451 13.4208 16.9909 11.5684 15.5495 11.0024C15.3307 10.9137 14.7773 10.7194 14.4813 10.7065C14.1982 10.7065 13.9279 10.7709 13.6705 10.8995C13.3487 11.0796 13.0913 11.3626 12.9498 11.6971C12.8597 11.9286 12.7181 12.6233 12.7181 12.6361C12.5765 13.3951 12.4993 14.63 12.4993 15.9936C12.4993 17.2941 12.5765 18.4763 12.6924 19.2481C12.6955 19.2513 12.7066 19.3065 12.7238 19.3922C12.7761 19.653 12.885 20.1961 13.0012 20.4187C13.2844 20.959 13.8378 21.2935 14.4298 21.2935H14.4813C14.8674 21.2806 15.6782 20.9461 15.6782 20.9333C17.0424 20.3673 19.7323 18.6049 20.8133 17.4343L20.8906 17.3571Z" fill="currentColor"/>
</svg>
